{"title":"I Love Dick S01E00 Pilot 720p AMZN WEBRip HEVC 2CH x265","uid":15600751,"size":234041502,"categoryP":"video","categoryS":"hd___tv_shows","magnet":"?xt=urn:btih:64678bc52b148331818279d6621a097138360c2e&amp;dn=I+Love+Dick+S01E00+Pilot+720p+AMZN+WEBRip+HEVC+2CH+x265&amp;tr=udp%3A%2F%2Ftracker.leechers-paradise.org%3A6969&amp;tr=udp%3A%2F%2Fzer0day.ch%3A1337&amp;tr=udp%3A%2F%2Fopen.demonii.com%3A1337&amp;tr=udp%3A%2F%2Ftracker.coppersurfer.tk%3A6969&amp;tr=udp%3A%2F%2Fexodus.desync.com%3A6969","seeders":2,"leechers":0,"uploader":"nayhtut","files":1,"time":1471638841,"description":"\n[Screenshots]\r\n \nhttps://s4.postimg.org/rlyfysst9/I_Love_Dick_S01_E00_Pilot_720p_AMZN_WEBRip_HEVC_2.jpg \nhttps://s4.postimg.org/ceigeg0yl/I_Love_Dick_S01_E00_Pilot_720p_AMZN_WEBRip_HEVC_2.jpg \nhttps://s4.postimg.org/ydtwyro4d/I_Love_Dick_S01_E00_Pilot_720p_AMZN_WEBRip_HEVC_2.jpg\r\n\r\n\r\nSource: I Love Dick S01E00 Pilot 1080p AMZN WEBRip DD5.1 x264-RTN (1.31 GB)\r\n\r\n\r\n__--__--__--__--__--__--__--__--__--__--__--__--__--\r\n\r\n\r\nComplete name                            : I.Love.Dick.S01E00.Pilot.720p.AMZN.WEBRip.HEVC.2CH.x265.mkv\r\nFormat                                   : Matroska\r\nFormat version                           : Version 4 / Version 2\r\nFile size                                : 223 MiB\r\nDuration                                 : 32mn 58s\r\nOverall bit rate                         : 946 Kbps\r\nWriting application                      : Lavf57.25.100\r\nWriting library                          : Lavf57.25.100\r\n\r\nVideo\r\n\r\nID                                       : 1\r\nFormat                                   : V_MPEGH/ISO/HEVC\r\nCodec ID                                 : V_MPEGH/ISO/HEVC\r\nDuration                                 : 32mn 58s\r\nBit rate                                 : 735 Kbps\r\nWidth                                    : 1 280 pixels\r\nHeight                                   : 640 pixels\r\nDisplay aspect ratio                     : 2.000\r\nFrame rate                               : 25.000 fps\r\nBits/(Pixel*Frame)                       : 0.036\r\nStream size                              : 173 MiB (78%)\r\nWriting library                          : Lavc57.48.101 libx265\r\nLanguage                                 : English\r\nDefault                                  : Yes\r\nForced                                   : No\r\nDURATION                                 : 00:32:58.531000000\r\n\r\nAudio\r\n\r\nID                                       : 2\r\nFormat                                   : AC-3\r\nFormat/Info                              : Audio Coding 3\r\nMode extension                           : CM (complete main)\r\nFormat settings, Endianness              : Big\r\nCodec ID                                 : A_AC3\r\nDuration                                 : 32mn 58s\r\nBit rate mode                            : Constant\r\nBit rate                                 : 192 Kbps\r\nChannel(s)                               : 2 channels\r\nChannel positions                        : Front: L R\r\nSampling rate                            : 48.0 KHz\r\nBit depth                                : 16 bits\r\nCompression mode                         : Lossy\r\nStream size                              : 45.3 MiB (20%)\r\nWriting library                          : Lavc57.24.102 ac3\r\nLanguage                                 : English\r\nDefault                                  : Yes\r\nForced                                   : No\r\nDURATION                                 : 00:32:58.495000000\r\n\r\nText\r\n\r\nID                                       : 3\r\nFormat                                   : ASS\r\nCodec ID                                 : S_TEXT/ASS\r\nCodec ID/Info                            : Advanced Sub Station Alpha\r\nCompression mode                         : Lossless\r\nWriting library                          : Lavc57.48.101 ssa\r\nLanguage                                 : English\r\nDefault                                  : No\r\nForced                                   : No\r\nDURATION                                 : 00:32:34.204000000\r\n\r\n__--__--__--__--__--__--__--__--__--__--__--__--__--\r\n\r\n\r\nIMDb: http://www.imdb.com/title/tt5478730\r\n\r\nAfter adding torrent with magnet link,\r\n\r\nplease add this  following trackers list to the torrent for better seeds.\r\n\r\n\r\nudp://tracker.coppersurfer.tk:6969/announce\r\n\r\nudp://tracker.opentrackr.org:1337/announce\r\n \nhttp://tracker.baravik.org:6970/announce\r\n \nhttp://tracker2.wasabii.com.tw:6969/announce\r\n\r\nudp://9.rarbg.me:2710/announce\r\n\r\n__--__--__--__--__--__--__--__--__--__--__--__--__--\r\n\r\n\r\n\r\nEnjoy!","torrent":{"xt":"urn:btih:64678bc52b148331818279d6621a097138360c2e","amp;dn":"I+Love+Dick+S01E00+Pilot+720p+AMZN+WEBRip+HEVC+2CH+x265","amp;tr":["udp%3A%2F%2Ftracker.leechers-paradise.org%3A6969","udp%3A%2F%2Fzer0day.ch%3A1337","udp%3A%2F%2Fopen.demonii.com%3A1337","udp%3A%2F%2Ftracker.coppersurfer.tk%3A6969","udp%3A%2F%2Fexodus.desync.com%3A6969"],"infoHash":"64678bc52b148331818279d6621a097138360c2e","infoHashBuffer":{"type":"Buffer","data":[100,103,139,197,43,20,131,49,129,130,121,214,98,26,9,113,56,54,12,46]},"announce":[],"urlList":[]}}